<svg width="48" height="48" version="1.1" viewBox="0 0 12.7 12.7" xmlns="http://www.w3.org/2000/svg">
	<g transform="translate(-37.415 -177.53)">
		<path d="m49.065 190.19c-0.0795-0.0268-0.17718-0.0689-0.21707-0.0936-0.03989-0.0247-0.66614-0.66046-1.3917-1.4129-0.72552-0.75243-1.3289-1.369-1.3408-1.3701-0.01193-1e-3 -0.07457 0.0295-0.13919 0.068-0.24547 0.14623-0.78236 0.38134-1.1114 0.4867-1.6549 0.52992-3.4666 0.31476-4.9118-0.58333-1.2405-0.77085-2.1185-1.9883-2.4135-3.3464-0.20979-0.96581-0.15392-1.8635 0.17413-2.7978 0.93155-2.653 3.9056-4.1538 6.7968-3.4298 2.4494 0.61334 4.1509 2.7202 4.1492 5.1377-8.53e-4 1.1809-0.38875 2.2687-1.1459 3.2135l-0.23004 0.28706 1.3434 1.3867c0.76041 0.78492 1.374 1.4408 1.4139 1.5113 0.1848 0.32679 0.01256 0.7608-0.36439 0.91814-0.17902 0.0747-0.43314 0.085-0.61167 0.0248zm-5.2176-3.4341c0.96684-0.19407 1.8314-0.69042 2.435-1.398 0.44187-0.51795 0.72828-1.1108 0.87446-1.8102 0.07566-0.36199 0.06761-1.1031-0.01604-1.4762-0.08781-0.39165-0.20718-0.7082-0.40178-1.0654-0.88277-1.6206-2.8432-2.4634-4.7281-2.0328-1.7876 0.40846-3.078 1.8405-3.2146 3.5676-0.07113 0.89931 0.16484 1.7636 0.68375 2.5045 0.66521 0.9497 1.6747 1.5615 2.8827 1.7471 0.35991 0.0553 1.1204 0.0366 1.4845-0.0365z" fill="#b3b3b3" stroke-width=".027381"/>
	</g>
</svg>
